<?xml version="1.0" encoding="utf-8"?>
<!-- Generator: Adobe Illustrator 24.0.0, SVG Export Plug-In . SVG Version: 6.00 Build 0)  -->
<svg version="1.1" id="Calque_1" xmlns="http://www.w3.org/2000/svg" xmlns:xlink="http://www.w3.org/1999/xlink" x="0px" y="0px"
	 viewBox="0 0 97 97" style="enable-background:new 0 0 97 97;" xml:space="preserve">
<style type="text/css">
	.st0{fill:#1D1D1B;}
	.st1{clip-path:url(#SVGID_2_);fill:none;stroke:#1D1D1B;stroke-width:2;stroke-miterlimit:10;}
</style>
<g>
	<g>
		<path class="st0" d="M29.22,32.51c0.22,0.66,0.06,1.43-0.49,2.31l-2.94,4.71l-1.87-1.17l2.66-4.26c0.23-0.37,0.36-0.68,0.38-0.94
			C27,32.7,26.78,32.31,26.27,32c-0.62-0.38-1.2-0.39-1.76,0c-0.29,0.2-0.57,0.52-0.84,0.95l-2.37,3.79l-1.83-1.14l4.36-6.98
			l1.77,1.11l-0.64,1.02c0.46-0.21,0.84-0.33,1.15-0.36c0.55-0.05,1.11,0.11,1.69,0.47C28.53,31.29,29,31.85,29.22,32.51z"/>
		<path class="st0" d="M34.12,43.55c-1.05,0.36-2.17,0.16-3.37-0.59c-1.2-0.75-1.87-1.68-2.01-2.77c-0.13-1.1,0.12-2.16,0.76-3.19
			c0.63-1.01,1.47-1.7,2.52-2.07c1.05-0.37,2.18-0.18,3.38,0.57c1.2,0.75,1.87,1.68,2,2.79c0.13,1.11-0.12,2.17-0.75,3.18
			C36.01,42.5,35.17,43.19,34.12,43.55z M33.29,41.63c0.52-0.2,1-0.65,1.44-1.35c0.44-0.7,0.63-1.33,0.58-1.89s-0.34-1-0.88-1.34
			c-0.54-0.33-1.06-0.4-1.59-0.21c-0.52,0.2-1.01,0.65-1.44,1.35c-0.44,0.7-0.63,1.33-0.58,1.89s0.34,1.01,0.88,1.34
			C32.24,41.76,32.77,41.83,33.29,41.63z"/>
		<path class="st0" d="M42.24,40.09l-2.63,4.22c-0.25,0.4-0.39,0.73-0.42,0.99c-0.06,0.46,0.16,0.84,0.64,1.14
			c0.62,0.39,1.21,0.4,1.75,0.04c0.29-0.2,0.58-0.52,0.86-0.97l2.38-3.8l1.85,1.16l-4.37,7l-1.78-1.11l0.62-0.99
			c-0.03,0.01-0.11,0.05-0.25,0.11c-0.14,0.06-0.28,0.11-0.42,0.13c-0.45,0.08-0.83,0.08-1.16,0.01c-0.33-0.07-0.67-0.22-1.03-0.44
			c-1.03-0.65-1.5-1.45-1.39-2.42c0.06-0.54,0.33-1.21,0.83-2.01l2.63-4.21L42.24,40.09z"/>
		<path class="st0" d="M53.02,46.83l1.96,1.23l-6.9,5.42l-1.93-1.21l1.86-8.56l2.05,1.28l-1.77,6.07L53.02,46.83z"/>
		<path class="st0" d="M60.74,51.85c0.35,0.52,0.54,1.12,0.56,1.79c0.03,0.6-0.09,1.19-0.35,1.79c-0.15,0.35-0.42,0.83-0.81,1.43
			l-5.09-3.18c-0.41,0.72-0.47,1.37-0.19,1.93c0.17,0.35,0.45,0.65,0.84,0.89c0.42,0.26,0.82,0.36,1.22,0.31
			c0.21-0.03,0.44-0.11,0.68-0.25l1.87,1.17c-0.31,0.38-0.8,0.67-1.47,0.84c-1.05,0.29-2.14,0.08-3.27-0.62
			c-0.93-0.58-1.57-1.38-1.93-2.4c-0.35-1.02-0.13-2.17,0.68-3.47c0.76-1.21,1.66-1.94,2.71-2.19s2.08-0.05,3.11,0.59
			C59.91,50.87,60.39,51.32,60.74,51.85z M57.01,51.72c-0.42,0.1-0.81,0.36-1.16,0.78L59,54.46c0.27-0.51,0.34-0.98,0.2-1.41
			s-0.42-0.79-0.85-1.05C57.89,51.71,57.44,51.61,57.01,51.72z"/>
		<path class="st0" d="M64.89,58.05c0.37,0.17,0.64,0.27,0.83,0.3c0.33,0.05,0.57-0.04,0.72-0.27c0.18-0.29,0.2-0.55,0.07-0.78
			c-0.13-0.24-0.4-0.47-0.79-0.72c-0.44-0.27-0.81-0.36-1.13-0.26c-0.23,0.08-0.45,0.24-0.66,0.48l-1.77-1.1
			c0.42-0.59,0.91-0.98,1.46-1.19c0.87-0.31,1.9-0.1,3.08,0.64c0.77,0.48,1.36,1.06,1.77,1.74c0.41,0.68,0.35,1.44-0.18,2.28
			l-2.01,3.21c-0.14,0.22-0.3,0.5-0.49,0.82c-0.14,0.25-0.2,0.43-0.2,0.56c0.01,0.12,0.05,0.25,0.14,0.38l-0.17,0.27l-1.99-1.24
			c0.03-0.18,0.08-0.33,0.13-0.47c0.06-0.14,0.13-0.29,0.21-0.46c-0.43,0.12-0.86,0.17-1.32,0.15c-0.54-0.02-1.06-0.19-1.56-0.5
			c-0.64-0.4-1.05-0.91-1.24-1.53c-0.19-0.62-0.08-1.26,0.34-1.93c0.54-0.86,1.26-1.27,2.17-1.24c0.5,0.02,1.13,0.21,1.9,0.56
			L64.89,58.05z M65.47,59.6c-0.16,0-0.32-0.02-0.46-0.04s-0.34-0.09-0.57-0.18l-0.46-0.18c-0.43-0.18-0.77-0.27-1-0.28
			c-0.39-0.01-0.7,0.16-0.92,0.51c-0.2,0.31-0.25,0.59-0.16,0.84c0.09,0.25,0.26,0.45,0.51,0.61c0.4,0.25,0.84,0.36,1.32,0.34
			c0.48-0.02,0.92-0.33,1.32-0.94L65.47,59.6z"/>
		<path class="st0" d="M73.21,59.44l-2.63,4.22c-0.25,0.4-0.39,0.73-0.42,0.99c-0.06,0.46,0.16,0.84,0.64,1.14
			c0.62,0.39,1.21,0.4,1.75,0.04c0.29-0.2,0.58-0.52,0.86-0.97l2.38-3.8l1.85,1.16l-4.37,7l-1.78-1.11l0.62-0.99
			c-0.03,0.01-0.11,0.05-0.25,0.11c-0.13,0.06-0.28,0.11-0.42,0.13c-0.45,0.08-0.83,0.08-1.16,0.01c-0.33-0.07-0.67-0.22-1.03-0.44
			c-1.03-0.64-1.5-1.45-1.39-2.42c0.06-0.54,0.33-1.21,0.83-2.01l2.63-4.21L73.21,59.44z"/>
	</g>
	<g>
		<defs>
			<rect id="SVGID_1_" x="0.5" y="0.5" width="95.99" height="95.99"/>
		</defs>
		<clipPath id="SVGID_2_">
			<use xlink:href="#SVGID_1_"  style="overflow:visible;"/>
		</clipPath>
		<circle class="st1" cx="48.5" cy="48.5" r="47"/>
	</g>
</g>
</svg>
