<?xml version="1.0" encoding="utf-8"?>
<!-- Generator: Adobe Illustrator 24.0.0, SVG Export Plug-In . SVG Version: 6.00 Build 0)  -->
<svg version="1.1" id="Calque_1" xmlns="http://www.w3.org/2000/svg" xmlns:xlink="http://www.w3.org/1999/xlink" x="0px" y="0px"
	 viewBox="0 0 97 97" style="enable-background:new 0 0 97 97;" xml:space="preserve">
<style type="text/css">
	.st0{clip-path:url(#SVGID_2_);fill:none;stroke:#1D1D1B;stroke-width:2;stroke-miterlimit:10;}
	.st1{fill:#1D1D1B;}
	.st2{clip-path:url(#SVGID_4_);fill:none;stroke:#1D1D1B;stroke-width:2;stroke-miterlimit:10;}
</style>
<g>
	<g>
		<path class="st1" d="M44.52,40.31c0.22,0.67,0.06,1.44-0.49,2.31l-2.94,4.71l-1.87-1.17l2.66-4.26c0.23-0.37,0.36-0.68,0.38-0.94
			c0.05-0.47-0.18-0.86-0.68-1.18c-0.62-0.38-1.2-0.39-1.76,0c-0.29,0.2-0.57,0.52-0.84,0.95l-2.37,3.79l-1.83-1.14l4.36-6.98
			l1.77,1.11l-0.64,1.02c0.46-0.21,0.84-0.33,1.15-0.36c0.55-0.05,1.11,0.11,1.69,0.47C43.83,39.08,44.3,39.64,44.52,40.31z"/>
		<path class="st1" d="M51.89,44.55c0.35,0.52,0.54,1.12,0.56,1.79c0.03,0.6-0.09,1.19-0.35,1.8c-0.15,0.35-0.42,0.83-0.81,1.43
			l-5.1-3.18c-0.41,0.72-0.47,1.37-0.19,1.93c0.17,0.35,0.45,0.65,0.84,0.89c0.42,0.26,0.82,0.37,1.22,0.31
			c0.21-0.03,0.44-0.11,0.68-0.25l1.87,1.17c-0.31,0.38-0.8,0.66-1.47,0.84c-1.05,0.29-2.14,0.08-3.27-0.62
			c-0.93-0.58-1.57-1.38-1.93-2.4c-0.35-1.02-0.13-2.17,0.68-3.47c0.76-1.21,1.66-1.94,2.71-2.18c1.05-0.25,2.08-0.05,3.11,0.59
			C51.06,43.58,51.54,44.03,51.89,44.55z M48.17,44.42c-0.42,0.1-0.81,0.36-1.16,0.78l3.15,1.97c0.27-0.51,0.34-0.98,0.2-1.41
			c-0.13-0.43-0.42-0.79-0.85-1.05C49.04,44.41,48.59,44.32,48.17,44.42z"/>
		<path class="st1" d="M58.28,48.35l1.86,1.16l-2.08,5.7l4.24-4.36l1.91,1.19l-6.4,5.73l-1.88-1.17l2.09-5.78l-4.29,4.4l-1.9-1.19
			l2.41-8.22l1.96,1.23l-2.04,5.7L58.28,48.35z"/>
	</g>
	<g>
		<defs>
			<rect id="SVGID_3_" x="0.5" y="0.5" width="95.99" height="95.99"/>
		</defs>
		<clipPath id="SVGID_2_">
			<use xlink:href="#SVGID_3_"  style="overflow:visible;"/>
		</clipPath>
		<circle class="st0" cx="48.5" cy="48.5" r="47"/>
	</g>
</g>
</svg>
